<?xml version="1.0" encoding="utf-8" standalone="no"?>
<!DOCTYPE svg PUBLIC "-//W3C//DTD SVG 1.1//EN"
  "http://www.w3.org/Graphics/SVG/1.1/DTD/svg11.dtd">
<svg xmlns:xlink="http://www.w3.org/1999/xlink" width="324pt" height="511.2pt" viewBox="0 0 324 511.2" xmlns="http://www.w3.org/2000/svg" version="1.1">
 <title>02-online-learning</title>
 <metadata>
  <rdf:RDF xmlns:dc="http://purl.org/dc/elements/1.1/" xmlns:cc="http://creativecommons.org/ns#" xmlns:rdf="http://www.w3.org/1999/02/22-rdf-syntax-ns#">
   <cc:Work>
    <dc:type rdf:resource="http://purl.org/dc/dcmitype/StillImage"/>
    <dc:title>02-online-learning</dc:title>
    <dc:description>Architecture schematic.</dc:description>
    <dc:format>image/svg+xml</dc:format>
    <dc:creator>
     <cc:Agent>
      <dc:title>Matplotlib v3.11.2, https://matplotlib.org/</dc:title>
     </cc:Agent>
    </dc:creator>
   </cc:Work>
  </rdf:RDF>
 </metadata>
 <defs>
  <style type="text/css">*{stroke-linejoin: round; stroke-linecap: butt}</style>
 </defs>
 <g id="figure_1">
  <g id="patch_1">
   <path d="M 0 511.2 
L 324 511.2 
L 324 0 
L 0 0 
L 0 511.2 
z
" style="fill: none"/>
  </g>
  <g id="axes_1">
   <g id="patch_2">
    <path d="M 100.0836 92.173329 
Q 100.0836 121.949455 100.0836 150.607547 
" clip-path="url(#pb0f1516566)" style="fill: none; stroke: #969991; stroke-linecap: round"/>
    <path d="M 102.0836 146.607547 
L 100.0836 150.607547 
L 98.0836 146.607547 
" clip-path="url(#pb0f1516566)" style="fill: none; stroke: #969991; stroke-linecap: round"/>
   </g>
   <g id="patch_3">
    <path d="M 100.0836 186.643089 
Q 100.0836 216.419215 100.0836 245.077307 
" clip-path="url(#pb0f1516566)" style="fill: none; stroke: #969991; stroke-linecap: round"/>
    <path d="M 102.0836 241.077307 
L 100.0836 245.077307 
L 98.0836 241.077307 
" clip-path="url(#pb0f1516566)" style="fill: none; stroke: #969991; stroke-linecap: round"/>
   </g>
   <g id="patch_4">
    <path d="M 100.0836 281.112849 
Q 100.0836 310.888975 100.0836 339.547067 
" clip-path="url(#pb0f1516566)" style="fill: none; stroke: #969991; stroke-linecap: round"/>
    <path d="M 102.0836 335.547067 
L 100.0836 339.547067 
L 98.0836 335.547067 
" clip-path="url(#pb0f1516566)" style="fill: none; stroke: #969991; stroke-linecap: round"/>
   </g>
   <g id="patch_5">
    <path d="M 100.0836 375.582294 
Q 100.0836 392.47927 100.0836 408.258213 
" clip-path="url(#pb0f1516566)" style="fill: none; stroke: #969991; stroke-linecap: round"/>
    <path d="M 102.0836 404.258213 
L 100.0836 408.258213 
L 98.0836 404.258213 
" clip-path="url(#pb0f1516566)" style="fill: none; stroke: #969991; stroke-linecap: round"/>
   </g>
   <g id="patch_6">
    <path d="M 100.0836 444.29334 
Q 100.0836 449.377433 100.0836 453.343491 
" clip-path="url(#pb0f1516566)" style="fill: none; stroke: #969991; stroke-linecap: round"/>
    <path d="M 102.0836 449.343491 
L 100.0836 453.343491 
L 98.0836 449.343491 
" clip-path="url(#pb0f1516566)" style="fill: none; stroke: #969991; stroke-linecap: round"/>
   </g>
   <g id="patch_7">
    <path d="M 40.167088 122.38128 
Q 67.062074 122.38128 92.839027 122.38128 
" clip-path="url(#pb0f1516566)" style="fill: none; stroke: #969991; stroke-linecap: round"/>
    <path d="M 88.839027 120.38128 
L 92.839027 122.38128 
L 88.839027 124.38128 
" clip-path="url(#pb0f1516566)" style="fill: none; stroke: #969991; stroke-linecap: round"/>
   </g>
   <g id="patch_8">
    <path d="M 40.167088 216.85104 
Q 67.062074 216.85104 92.839027 216.85104 
" clip-path="url(#pb0f1516566)" style="fill: none; stroke: #969991; stroke-linecap: round"/>
    <path d="M 88.839027 214.85104 
L 92.839027 216.85104 
L 88.839027 218.85104 
" clip-path="url(#pb0f1516566)" style="fill: none; stroke: #969991; stroke-linecap: round"/>
   </g>
   <g id="patch_9">
    <path d="M 40.167088 311.3208 
Q 67.062074 311.3208 92.839027 311.3208 
" clip-path="url(#pb0f1516566)" style="fill: none; stroke: #969991; stroke-linecap: round"/>
    <path d="M 88.839027 309.3208 
L 92.839027 311.3208 
L 88.839027 313.3208 
" clip-path="url(#pb0f1516566)" style="fill: none; stroke: #969991; stroke-linecap: round"/>
   </g>
   <g id="patch_10">
    <path d="M 291.7296 427.26096 
Q 204.277706 427.26096 117.943846 427.26096 
" clip-path="url(#pb0f1516566)" style="fill: none; stroke: #969991; stroke-linecap: round"/>
    <path d="M 121.943846 429.26096 
L 117.943846 427.26096 
L 121.943846 425.26096 
" clip-path="url(#pb0f1516566)" style="fill: none; stroke: #969991; stroke-linecap: round"/>
   </g>
   <g id="line2d_1">
    <path d="M 119.2482 169.61616 
L 291.7296 169.61616 
" clip-path="url(#pb0f1516566)" style="fill: none; stroke: #969991; stroke-linecap: square"/>
   </g>
   <g id="line2d_2">
    <path d="M 291.7296 169.61616 
L 291.7296 427.26096 
" clip-path="url(#pb0f1516566)" style="fill: none; stroke: #969991; stroke-linecap: square"/>
   </g>
   <g id="text_1">
    <!-- $S_{t-1}$ -->
    <g style="fill: #deded8" transform="translate(79.8336 79.822181) scale(0.18 -0.18)">
     <defs>
      <path id="DejaVuSans-Oblique-36" d="M 3859 4513 
L 3738 3897 
Q 3422 4066 3111 4152 
Q 2800 4238 2509 4238 
Q 1944 4238 1609 3991 
Q 1275 3744 1275 3334 
Q 1275 3109 1398 2989 
Q 1522 2869 2034 2731 
L 2413 2638 
Q 3053 2472 3303 2217 
Q 3553 1963 3553 1503 
Q 3553 797 2998 353 
Q 2444 -91 1538 -91 
Q 1166 -91 791 -17 
Q 416 56 38 206 
L 166 856 
Q 513 641 861 531 
Q 1209 422 1556 422 
Q 2147 422 2503 684 
Q 2859 947 2859 1369 
Q 2859 1650 2717 1795 
Q 2575 1941 2106 2059 
L 1728 2156 
Q 1081 2325 845 2545 
Q 609 2766 609 3163 
Q 609 3859 1145 4304 
Q 1681 4750 2541 4750 
Q 2875 4750 3203 4690 
Q 3531 4631 3859 4513 
z
" transform="scale(0.015625)"/>
      <path id="DejaVuSans-Oblique-57" d="M 2706 3500 
L 2619 3053 
L 1472 3053 
L 1100 1153 
Q 1081 1047 1072 975 
Q 1063 903 1063 863 
Q 1063 663 1183 572 
Q 1303 481 1569 481 
L 2150 481 
L 2053 0 
L 1503 0 
Q 991 0 739 200 
Q 488 400 488 806 
Q 488 878 497 964 
Q 506 1050 525 1153 
L 897 3053 
L 409 3053 
L 500 3500 
L 978 3500 
L 1172 4494 
L 1747 4494 
L 1556 3500 
L 2706 3500 
z
" transform="scale(0.015625)"/>
      <path id="DejaVuSans-c9c" d="M 678 2272 
L 4684 2272 
L 4684 1741 
L 678 1741 
L 678 2272 
z
" transform="scale(0.015625)"/>
      <path id="DejaVuSans-14" d="M 794 531 
L 1825 531 
L 1825 4091 
L 703 3866 
L 703 4441 
L 1819 4666 
L 2450 4666 
L 2450 531 
L 3481 531 
L 3481 0 
L 794 0 
L 794 531 
z
" transform="scale(0.015625)"/>
     </defs>
     <use xlink:href="#DejaVuSans-Oblique-36" transform="translate(0 0.78125)"/>
     <use xlink:href="#DejaVuSans-Oblique-57" transform="translate(63.476562 -14.218701) scale(0.7)"/>
     <use xlink:href="#DejaVuSans-c9c" transform="translate(104.560547 -14.218701) scale(0.7)"/>
     <use xlink:href="#DejaVuSans-14" transform="translate(176.850586 -14.218701) scale(0.7)"/>
    </g>
   </g>
   <g id="text_2">
    <!-- $\widetilde S_t$ -->
    <g style="fill: #deded8" transform="translate(91.5336 176.094051) scale(0.18 -0.18)">
     <defs>
      <path id="STIXSizeTwoSym-Regular-13" d="M -1274 4864 
L -1107 4864 
Q -1280 3891 -2560 3891 
Q -2861 3891 -3097 3916 
Q -3334 3942 -3484 3974 
Q -3635 4006 -4044 4102 
Q -4454 4198 -4806 4275 
Q -5741 4474 -6093 4474 
Q -7021 4474 -7206 3891 
L -7373 3891 
Q -7200 4864 -5997 4864 
Q -5414 4864 -3718 4474 
Q -2842 4269 -2400 4269 
Q -1421 4269 -1274 4864 
z
" transform="scale(0.015625)"/>
     </defs>
     <use xlink:href="#STIXSizeTwoSym-Regular-13" transform="translate(70.234375 49.65625) scale(0.609799)"/>
     <use xlink:href="#DejaVuSans-Oblique-36"/>
     <use xlink:href="#DejaVuSans-Oblique-57" transform="translate(64.433594 -14.999951) scale(0.7)"/>
    </g>
   </g>
   <g id="text_3">
    <!-- $e_t$ -->
    <g style="fill: #deded8" transform="translate(91.8036 268.761701) scale(0.18 -0.18)">
     <defs>
      <path id="DejaVuSans-Oblique-48" d="M 3078 2063 
Q 3088 2113 3092 2166 
Q 3097 2219 3097 2272 
Q 3097 2653 2873 2875 
Q 2650 3097 2266 3097 
Q 1838 3097 1509 2826 
Q 1181 2556 1013 2059 
L 3078 2063 
z
M 3578 1613 
L 903 1613 
Q 884 1494 878 1425 
Q 872 1356 872 1306 
Q 872 872 1139 634 
Q 1406 397 1894 397 
Q 2269 397 2603 481 
Q 2938 566 3225 728 
L 3116 159 
Q 2806 34 2476 -28 
Q 2147 -91 1806 -91 
Q 1078 -91 686 257 
Q 294 606 294 1247 
Q 294 1794 489 2264 
Q 684 2734 1063 3103 
Q 1306 3334 1642 3459 
Q 1978 3584 2356 3584 
Q 2950 3584 3301 3228 
Q 3653 2872 3653 2272 
Q 3653 2128 3634 1964 
Q 3616 1800 3578 1613 
z
" transform="scale(0.015625)"/>
     </defs>
     <use xlink:href="#DejaVuSans-Oblique-48"/>
     <use xlink:href="#DejaVuSans-Oblique-57" transform="translate(61.523438 -14.999951) scale(0.7)"/>
    </g>
   </g>
   <g id="text_4">
    <!-- $\Delta S_t^{\rm delta}$ -->
    <g style="fill: #deded8" transform="translate(71.2836 364.58568) scale(0.18 -0.18)">
     <defs>
      <path id="DejaVuSans-329" d="M 2188 4044 
L 906 525 
L 3472 525 
L 2188 4044 
z
M 50 0 
L 1831 4666 
L 2547 4666 
L 4325 0 
L 50 0 
z
" transform="scale(0.015625)"/>
      <path id="DejaVuSans-47" d="M 2906 2969 
L 2906 4863 
L 3481 4863 
L 3481 0 
L 2906 0 
L 2906 525 
Q 2725 213 2448 61 
Q 2172 -91 1784 -91 
Q 1150 -91 751 415 
Q 353 922 353 1747 
Q 353 2572 751 3078 
Q 1150 3584 1784 3584 
Q 2172 3584 2448 3432 
Q 2725 3281 2906 2969 
z
M 947 1747 
Q 947 1113 1208 752 
Q 1469 391 1925 391 
Q 2381 391 2643 752 
Q 2906 1113 2906 1747 
Q 2906 2381 2643 2742 
Q 2381 3103 1925 3103 
Q 1469 3103 1208 2742 
Q 947 2381 947 1747 
z
" transform="scale(0.015625)"/>
      <path id="DejaVuSans-48" d="M 3597 1894 
L 3597 1613 
L 953 1613 
Q 991 1019 1311 708 
Q 1631 397 2203 397 
Q 2534 397 2845 478 
Q 3156 559 3463 722 
L 3463 178 
Q 3153 47 2828 -22 
Q 2503 -91 2169 -91 
Q 1331 -91 842 396 
Q 353 884 353 1716 
Q 353 2575 817 3079 
Q 1281 3584 2069 3584 
Q 2775 3584 3186 3129 
Q 3597 2675 3597 1894 
z
M 3022 2063 
Q 3016 2534 2758 2815 
Q 2500 3097 2075 3097 
Q 1594 3097 1305 2825 
Q 1016 2553 972 2059 
L 3022 2063 
z
" transform="scale(0.015625)"/>
      <path id="DejaVuSans-4f" d="M 603 4863 
L 1178 4863 
L 1178 0 
L 603 0 
L 603 4863 
z
" transform="scale(0.015625)"/>
      <path id="DejaVuSans-57" d="M 1172 4494 
L 1172 3500 
L 2356 3500 
L 2356 3053 
L 1172 3053 
L 1172 1153 
Q 1172 725 1289 603 
Q 1406 481 1766 481 
L 2356 481 
L 2356 0 
L 1766 0 
Q 1100 0 847 248 
Q 594 497 594 1153 
L 594 3053 
L 172 3053 
L 172 3500 
L 594 3500 
L 594 4494 
L 1172 4494 
z
" transform="scale(0.015625)"/>
      <path id="DejaVuSans-44" d="M 2194 1759 
Q 1497 1759 1228 1600 
Q 959 1441 959 1056 
Q 959 750 1161 570 
Q 1363 391 1709 391 
Q 2188 391 2477 730 
Q 2766 1069 2766 1631 
L 2766 1759 
L 2194 1759 
z
M 3341 1997 
L 3341 0 
L 2766 0 
L 2766 531 
Q 2569 213 2275 61 
Q 1981 -91 1556 -91 
Q 1019 -91 701 211 
Q 384 513 384 1019 
Q 384 1609 779 1909 
Q 1175 2209 1959 2209 
L 2766 2209 
L 2766 2266 
Q 2766 2663 2505 2880 
Q 2244 3097 1772 3097 
Q 1472 3097 1187 3025 
Q 903 2953 641 2809 
L 641 3341 
Q 956 3463 1253 3523 
Q 1550 3584 1831 3584 
Q 2591 3584 2966 3190 
Q 3341 2797 3341 1997 
z
" transform="scale(0.015625)"/>
     </defs>
     <use xlink:href="#DejaVuSans-329" transform="translate(0 0.065625)"/>
     <use xlink:href="#DejaVuSans-Oblique-36" transform="translate(68.408203 0.065625)"/>
     <use xlink:href="#DejaVuSans-47" transform="translate(139.085286 44.810938) scale(0.7)"/>
     <use xlink:href="#DejaVuSans-48" transform="translate(183.51888 44.810938) scale(0.7)"/>
     <use xlink:href="#DejaVuSans-4f" transform="translate(226.585286 44.810938) scale(0.7)"/>
     <use xlink:href="#DejaVuSans-57" transform="translate(246.033529 44.810938) scale(0.7)"/>
     <use xlink:href="#DejaVuSans-44" transform="translate(273.479818 44.810938) scale(0.7)"/>
     <use xlink:href="#DejaVuSans-Oblique-57" transform="translate(131.884766 -30.3375) scale(0.7)"/>
    </g>
   </g>
   <g id="text_5">
    <!-- $+$ -->
    <g style="fill: #deded8" transform="translate(92.5236 431.936741) scale(0.18 -0.18)">
     <defs>
      <path id="DejaVuSans-e" d="M 2944 4013 
L 2944 2272 
L 4684 2272 
L 4684 1741 
L 2944 1741 
L 2944 0 
L 2419 0 
L 2419 1741 
L 678 1741 
L 678 2272 
L 2419 2272 
L 2419 4013 
L 2944 4013 
z
" transform="scale(0.015625)"/>
     </defs>
     <use xlink:href="#DejaVuSans-e" transform="translate(0 0.296875)"/>
    </g>
   </g>
   <g id="text_6">
    <!-- $S_t$ -->
    <g style="fill: #deded8" transform="translate(91.6236 477.024581) scale(0.18 -0.18)">
     <use xlink:href="#DejaVuSans-Oblique-36" transform="translate(0 0.78125)"/>
     <use xlink:href="#DejaVuSans-Oblique-57" transform="translate(63.476562 -14.218701) scale(0.7)"/>
    </g>
   </g>
   <g id="text_7">
    <!-- $\alpha_t$ -->
    <g style="fill: #969991" transform="translate(24.8994 110.910307) scale(0.12 -0.12)">
     <defs>
      <path id="DejaVuSans-Oblique-345" d="M 2619 1628 
L 2622 2350 
Q 2625 3088 2069 3091 
Q 1653 3094 1394 2747 
Q 1069 2319 959 1747 
Q 825 1059 994 731 
Q 1169 397 1547 397 
Q 1966 397 2319 1063 
L 2619 1628 
z
M 2166 3578 
Q 3141 3594 3128 2584 
Q 3128 2584 3616 3500 
L 4128 3500 
L 3119 1603 
L 3109 919 
Q 3109 766 3194 638 
Q 3291 488 3391 488 
L 3669 488 
L 3575 0 
L 3228 0 
Q 2934 0 2722 263 
Q 2622 394 2619 669 
Q 2416 334 2066 50 
Q 1900 -81 1453 -78 
Q 722 -72 456 397 
Q 184 884 353 1747 
Q 534 2675 1009 3097 
Q 1544 3569 2166 3578 
z
" transform="scale(0.015625)"/>
     </defs>
     <use xlink:href="#DejaVuSans-Oblique-345" transform="translate(0 0.84375)"/>
     <use xlink:href="#DejaVuSans-Oblique-57" transform="translate(65.917969 -14.156201) scale(0.7)"/>
    </g>
   </g>
   <g id="text_8">
    <!-- Decay -->
    <g style="fill: #969991" transform="translate(132.516 111.64608) scale(0.1 -0.1)">
     <defs>
      <path id="DejaVuSans-27" d="M 1259 4147 
L 1259 519 
L 2022 519 
Q 2988 519 3436 956 
Q 3884 1394 3884 2338 
Q 3884 3275 3436 3711 
Q 2988 4147 2022 4147 
L 1259 4147 
z
M 628 4666 
L 1925 4666 
Q 3281 4666 3915 4102 
Q 4550 3538 4550 2338 
Q 4550 1131 3912 565 
Q 3275 0 1925 0 
L 628 0 
L 628 4666 
z
" transform="scale(0.015625)"/>
      <path id="DejaVuSans-46" d="M 3122 3366 
L 3122 2828 
Q 2878 2963 2633 3030 
Q 2388 3097 2138 3097 
Q 1578 3097 1268 2742 
Q 959 2388 959 1747 
Q 959 1106 1268 751 
Q 1578 397 2138 397 
Q 2388 397 2633 464 
Q 2878 531 3122 666 
L 3122 134 
Q 2881 22 2623 -34 
Q 2366 -91 2075 -91 
Q 1284 -91 818 406 
Q 353 903 353 1747 
Q 353 2603 823 3093 
Q 1294 3584 2113 3584 
Q 2378 3584 2631 3529 
Q 2884 3475 3122 3366 
z
" transform="scale(0.015625)"/>
      <path id="DejaVuSans-5c" d="M 2059 -325 
Q 1816 -950 1584 -1140 
Q 1353 -1331 966 -1331 
L 506 -1331 
L 506 -850 
L 844 -850 
Q 1081 -850 1212 -737 
Q 1344 -625 1503 -206 
L 1606 56 
L 191 3500 
L 800 3500 
L 1894 763 
L 2988 3500 
L 3597 3500 
L 2059 -325 
z
" transform="scale(0.015625)"/>
     </defs>
     <use xlink:href="#DejaVuSans-27"/>
     <use xlink:href="#DejaVuSans-48" transform="translate(77 0)"/>
     <use xlink:href="#DejaVuSans-46" transform="translate(138.53125 0)"/>
     <use xlink:href="#DejaVuSans-44" transform="translate(193.515625 0)"/>
     <use xlink:href="#DejaVuSans-5c" transform="translate(254.796875 0)"/>
    </g>
   </g>
   <g id="text_9">
    <!-- $\alpha_t S_{t-1}$ -->
    <g style="fill: #deded8" transform="translate(132.516 133.975296) scale(0.12 -0.12)">
     <use xlink:href="#DejaVuSans-Oblique-345" transform="translate(0 0.78125)"/>
     <use xlink:href="#DejaVuSans-Oblique-57" transform="translate(65.917969 -14.218701) scale(0.7)"/>
     <use xlink:href="#DejaVuSans-Oblique-36" transform="translate(96.098633 0.78125)"/>
     <use xlink:href="#DejaVuSans-Oblique-57" transform="translate(159.575195 -14.218701) scale(0.7)"/>
     <use xlink:href="#DejaVuSans-c9c" transform="translate(200.65918 -14.218701) scale(0.7)"/>
     <use xlink:href="#DejaVuSans-14" transform="translate(272.949219 -14.218701) scale(0.7)"/>
    </g>
   </g>
   <g id="text_10">
    <!-- $k_t,\ v_t$ -->
    <g style="fill: #969991" transform="translate(24.8994 205.380067) scale(0.12 -0.12)">
     <defs>
      <path id="DejaVuSans-Oblique-4e" d="M 1172 4863 
L 1747 4863 
L 1197 2028 
L 3169 3500 
L 3916 3500 
L 1716 1825 
L 3322 0 
L 2625 0 
L 1131 1709 
L 800 0 
L 225 0 
L 1172 4863 
z
" transform="scale(0.015625)"/>
      <path id="DejaVuSans-f" d="M 750 794 
L 1409 794 
L 1409 256 
L 897 -744 
L 494 -744 
L 750 256 
L 750 794 
z
" transform="scale(0.015625)"/>
      <path id="DejaVuSans-Oblique-59" d="M 459 3500 
L 1069 3500 
L 1581 525 
L 3256 3500 
L 3866 3500 
L 1875 0 
L 1100 0 
L 459 3500 
z
" transform="scale(0.015625)"/>
     </defs>
     <use xlink:href="#DejaVuSans-Oblique-4e" transform="translate(0 0.015625)"/>
     <use xlink:href="#DejaVuSans-Oblique-57" transform="translate(57.910156 -14.984326) scale(0.7)"/>
     <use xlink:href="#DejaVuSans-f" transform="translate(88.09082 0.015625)"/>
     <use xlink:href="#DejaVuSans-Oblique-59" transform="translate(171.83073 0.015625)"/>
     <use xlink:href="#DejaVuSans-Oblique-57" transform="translate(231.010417 -14.984326) scale(0.7)"/>
    </g>
   </g>
   <g id="text_11">
    <!-- Residual -->
    <g style="fill: #969991" transform="translate(132.516 206.11584) scale(0.1 -0.1)">
     <defs>
      <path id="DejaVuSans-35" d="M 2841 2188 
Q 3044 2119 3236 1894 
Q 3428 1669 3622 1275 
L 4263 0 
L 3584 0 
L 2988 1197 
Q 2756 1666 2539 1819 
Q 2322 1972 1947 1972 
L 1259 1972 
L 1259 0 
L 628 0 
L 628 4666 
L 2053 4666 
Q 2853 4666 3247 4331 
Q 3641 3997 3641 3322 
Q 3641 2881 3436 2590 
Q 3231 2300 2841 2188 
z
M 1259 4147 
L 1259 2491 
L 2053 2491 
Q 2509 2491 2742 2702 
Q 2975 2913 2975 3322 
Q 2975 3731 2742 3939 
Q 2509 4147 2053 4147 
L 1259 4147 
z
" transform="scale(0.015625)"/>
      <path id="DejaVuSans-56" d="M 2834 3397 
L 2834 2853 
Q 2591 2978 2328 3040 
Q 2066 3103 1784 3103 
Q 1356 3103 1142 2972 
Q 928 2841 928 2578 
Q 928 2378 1081 2264 
Q 1234 2150 1697 2047 
L 1894 2003 
Q 2506 1872 2764 1633 
Q 3022 1394 3022 966 
Q 3022 478 2636 193 
Q 2250 -91 1575 -91 
Q 1294 -91 989 -36 
Q 684 19 347 128 
L 347 722 
Q 666 556 975 473 
Q 1284 391 1588 391 
Q 1994 391 2212 530 
Q 2431 669 2431 922 
Q 2431 1156 2273 1281 
Q 2116 1406 1581 1522 
L 1381 1569 
Q 847 1681 609 1914 
Q 372 2147 372 2553 
Q 372 3047 722 3315 
Q 1072 3584 1716 3584 
Q 2034 3584 2315 3537 
Q 2597 3491 2834 3397 
z
" transform="scale(0.015625)"/>
      <path id="DejaVuSans-4c" d="M 603 3500 
L 1178 3500 
L 1178 0 
L 603 0 
L 603 3500 
z
M 603 4863 
L 1178 4863 
L 1178 4134 
L 603 4134 
L 603 4863 
z
" transform="scale(0.015625)"/>
      <path id="DejaVuSans-58" d="M 544 1381 
L 544 3500 
L 1119 3500 
L 1119 1403 
Q 1119 906 1312 657 
Q 1506 409 1894 409 
Q 2359 409 2629 706 
Q 2900 1003 2900 1516 
L 2900 3500 
L 3475 3500 
L 3475 0 
L 2900 0 
L 2900 538 
Q 2691 219 2414 64 
Q 2138 -91 1772 -91 
Q 1169 -91 856 284 
Q 544 659 544 1381 
z
M 1991 3584 
L 1991 3584 
z
" transform="scale(0.015625)"/>
     </defs>
     <use xlink:href="#DejaVuSans-35"/>
     <use xlink:href="#DejaVuSans-48" transform="translate(65 0)"/>
     <use xlink:href="#DejaVuSans-56" transform="translate(126.53125 0)"/>
     <use xlink:href="#DejaVuSans-4c" transform="translate(178.625 0)"/>
     <use xlink:href="#DejaVuSans-47" transform="translate(206.40625 0)"/>
     <use xlink:href="#DejaVuSans-58" transform="translate(269.890625 0)"/>
     <use xlink:href="#DejaVuSans-44" transform="translate(333.265625 0)"/>
     <use xlink:href="#DejaVuSans-4f" transform="translate(394.546875 0)"/>
    </g>
   </g>
   <g id="text_12">
    <!-- $v_t-\widetilde S_t^\top k_t$ -->
    <g style="fill: #deded8" transform="translate(132.516 228.445056) scale(0.12 -0.12)">
     <defs>
      <path id="DejaVuSans-d2e" d="M 5028 4481 
L 5028 4084 
L 2988 4084 
L 2988 0 
L 2588 0 
L 2588 4084 
L 547 4084 
L 547 4481 
L 5028 4481 
z
" transform="scale(0.015625)"/>
     </defs>
     <use xlink:href="#DejaVuSans-Oblique-59" transform="translate(0 0.009028)"/>
     <use xlink:href="#DejaVuSans-Oblique-57" transform="translate(59.179688 -14.990923) scale(0.7)"/>
     <use xlink:href="#DejaVuSans-c9c" transform="translate(108.842773 0.009028)"/>
     <use xlink:href="#STIXSizeTwoSym-Regular-13" transform="translate(282.348633 49.665278) scale(0.609799)"/>
     <use xlink:href="#DejaVuSans-Oblique-36" transform="translate(212.114258 0.009028)"/>
     <use xlink:href="#DejaVuSans-d2e" transform="translate(290.185547 68.989063) scale(0.7)"/>
     <use xlink:href="#DejaVuSans-Oblique-57" transform="translate(276.547852 -30.890972) scale(0.7)"/>
     <use xlink:href="#DejaVuSans-Oblique-4e" transform="translate(367.53418 0.009028)"/>
     <use xlink:href="#DejaVuSans-Oblique-57" transform="translate(425.444336 -14.990923) scale(0.7)"/>
    </g>
   </g>
   <g id="text_13">
    <!-- $\beta_t,\ k_t$ -->
    <g style="fill: #969991" transform="translate(24.8994 299.849827) scale(0.12 -0.12)">
     <defs>
      <path id="DejaVuSans-Oblique-346" d="M 872 216 
L 572 -1331 
L -6 -1331 
L 928 3478 
Q 1206 4903 2538 4903 
Q 3888 4903 3659 3700 
Q 3503 2844 2894 2531 
Q 3713 2250 3553 1416 
Q 3272 -69 1759 -66 
Q 1097 -63 872 216 
z
M 1019 966 
Q 1259 422 1875 425 
Q 2775 425 2966 1406 
Q 3138 2288 1675 2219 
L 1778 2750 
Q 2909 2731 3106 3750 
Q 3241 4438 2509 4434 
Q 1691 4434 1503 3459 
L 1019 966 
z
" transform="scale(0.015625)"/>
     </defs>
     <use xlink:href="#DejaVuSans-Oblique-346" transform="translate(0 0.390625)"/>
     <use xlink:href="#DejaVuSans-Oblique-57" transform="translate(63.818359 -14.609326) scale(0.7)"/>
     <use xlink:href="#DejaVuSans-f" transform="translate(93.999023 0.390625)"/>
     <use xlink:href="#DejaVuSans-Oblique-4e" transform="translate(177.738933 0.390625)"/>
     <use xlink:href="#DejaVuSans-Oblique-57" transform="translate(235.649089 -14.609326) scale(0.7)"/>
    </g>
   </g>
   <g id="text_14">
    <!-- Delta update -->
    <g style="fill: #969991" transform="translate(132.516 300.5856) scale(0.1 -0.1)">
     <defs>
      <path id="DejaVuSans-3" transform="scale(0.015625)"/>
      <path id="DejaVuSans-53" d="M 1159 525 
L 1159 -1331 
L 581 -1331 
L 581 3500 
L 1159 3500 
L 1159 2969 
Q 1341 3281 1617 3432 
Q 1894 3584 2278 3584 
Q 2916 3584 3314 3078 
Q 3713 2572 3713 1747 
Q 3713 922 3314 415 
Q 2916 -91 2278 -91 
Q 1894 -91 1617 61 
Q 1341 213 1159 525 
z
M 3116 1747 
Q 3116 2381 2855 2742 
Q 2594 3103 2138 3103 
Q 1681 3103 1420 2742 
Q 1159 2381 1159 1747 
Q 1159 1113 1420 752 
Q 1681 391 2138 391 
Q 2594 391 2855 752 
Q 3116 1113 3116 1747 
z
" transform="scale(0.015625)"/>
     </defs>
     <use xlink:href="#DejaVuSans-27"/>
     <use xlink:href="#DejaVuSans-48" transform="translate(77 0)"/>
     <use xlink:href="#DejaVuSans-4f" transform="translate(138.53125 0)"/>
     <use xlink:href="#DejaVuSans-57" transform="translate(166.3125 0)"/>
     <use xlink:href="#DejaVuSans-44" transform="translate(205.515625 0)"/>
     <use xlink:href="#DejaVuSans-3" transform="translate(266.796875 0)"/>
     <use xlink:href="#DejaVuSans-58" transform="translate(298.578125 0)"/>
     <use xlink:href="#DejaVuSans-53" transform="translate(361.953125 0)"/>
     <use xlink:href="#DejaVuSans-47" transform="translate(425.4375 0)"/>
     <use xlink:href="#DejaVuSans-44" transform="translate(488.921875 0)"/>
     <use xlink:href="#DejaVuSans-57" transform="translate(550.203125 0)"/>
     <use xlink:href="#DejaVuSans-48" transform="translate(589.40625 0)"/>
    </g>
   </g>
   <g id="text_15">
    <!-- $\beta_t k_t e_t^\top$ -->
    <g style="fill: #deded8" transform="translate(132.516 322.914816) scale(0.12 -0.12)">
     <use xlink:href="#DejaVuSans-Oblique-346" transform="translate(0 0.239062)"/>
     <use xlink:href="#DejaVuSans-Oblique-57" transform="translate(63.818359 -14.760889) scale(0.7)"/>
     <use xlink:href="#DejaVuSans-Oblique-4e" transform="translate(93.999023 0.239062)"/>
     <use xlink:href="#DejaVuSans-Oblique-57" transform="translate(151.90918 -14.760889) scale(0.7)"/>
     <use xlink:href="#DejaVuSans-Oblique-48" transform="translate(182.089844 0.239062)"/>
     <use xlink:href="#DejaVuSans-d2e" transform="translate(261.900872 43.989063) scale(0.7)"/>
     <use xlink:href="#DejaVuSans-Oblique-57" transform="translate(243.613281 -30.164062) scale(0.7)"/>
    </g>
   </g>
   <g id="text_16">
    <!-- $\widetilde S_t$ -->
    <g style="fill: #969991" transform="translate(188.2574 414.37872) scale(0.13 -0.13)">
     <use xlink:href="#STIXSizeTwoSym-Regular-13" transform="translate(70.234375 49.65625) scale(0.609799)"/>
     <use xlink:href="#DejaVuSans-Oblique-36"/>
     <use xlink:href="#DejaVuSans-Oblique-57" transform="translate(64.433594 -14.999951) scale(0.7)"/>
    </g>
   </g>
  </g>
  <g id="text_17">
   <!-- SCHEMATIC · one GDN head / one token -->
   <g style="fill: #969991" transform="translate(14.58 19.238672) scale(0.085 -0.085)">
    <defs>
     <path id="DejaVuSans-36" d="M 3425 4513 
L 3425 3897 
Q 3066 4069 2747 4153 
Q 2428 4238 2131 4238 
Q 1616 4238 1336 4038 
Q 1056 3838 1056 3469 
Q 1056 3159 1242 3001 
Q 1428 2844 1947 2747 
L 2328 2669 
Q 3034 2534 3370 2195 
Q 3706 1856 3706 1288 
Q 3706 609 3251 259 
Q 2797 -91 1919 -91 
Q 1588 -91 1214 -16 
Q 841 59 441 206 
L 441 856 
Q 825 641 1194 531 
Q 1563 422 1919 422 
Q 2459 422 2753 634 
Q 3047 847 3047 1241 
Q 3047 1584 2836 1778 
Q 2625 1972 2144 2069 
L 1759 2144 
Q 1053 2284 737 2584 
Q 422 2884 422 3419 
Q 422 4038 858 4394 
Q 1294 4750 2059 4750 
Q 2388 4750 2728 4690 
Q 3069 4631 3425 4513 
z
" transform="scale(0.015625)"/>
     <path id="DejaVuSans-26" d="M 4122 4306 
L 4122 3641 
Q 3803 3938 3442 4084 
Q 3081 4231 2675 4231 
Q 1875 4231 1450 3742 
Q 1025 3253 1025 2328 
Q 1025 1406 1450 917 
Q 1875 428 2675 428 
Q 3081 428 3442 575 
Q 3803 722 4122 1019 
L 4122 359 
Q 3791 134 3420 21 
Q 3050 -91 2638 -91 
Q 1578 -91 968 557 
Q 359 1206 359 2328 
Q 359 3453 968 4101 
Q 1578 4750 2638 4750 
Q 3056 4750 3426 4639 
Q 3797 4528 4122 4306 
z
" transform="scale(0.015625)"/>
     <path id="DejaVuSans-2b" d="M 628 4666 
L 1259 4666 
L 1259 2753 
L 3553 2753 
L 3553 4666 
L 4184 4666 
L 4184 0 
L 3553 0 
L 3553 2222 
L 1259 2222 
L 1259 0 
L 628 0 
L 628 4666 
z
" transform="scale(0.015625)"/>
     <path id="DejaVuSans-28" d="M 628 4666 
L 3578 4666 
L 3578 4134 
L 1259 4134 
L 1259 2753 
L 3481 2753 
L 3481 2222 
L 1259 2222 
L 1259 531 
L 3634 531 
L 3634 0 
L 628 0 
L 628 4666 
z
" transform="scale(0.015625)"/>
     <path id="DejaVuSans-30" d="M 628 4666 
L 1569 4666 
L 2759 1491 
L 3956 4666 
L 4897 4666 
L 4897 0 
L 4281 0 
L 4281 4097 
L 3078 897 
L 2444 897 
L 1241 4097 
L 1241 0 
L 628 0 
L 628 4666 
z
" transform="scale(0.015625)"/>
     <path id="DejaVuSans-24" d="M 2188 4044 
L 1331 1722 
L 3047 1722 
L 2188 4044 
z
M 1831 4666 
L 2547 4666 
L 4325 0 
L 3669 0 
L 3244 1197 
L 1141 1197 
L 716 0 
L 50 0 
L 1831 4666 
z
" transform="scale(0.015625)"/>
     <path id="DejaVuSans-37" d="M -19 4666 
L 3928 4666 
L 3928 4134 
L 2272 4134 
L 2272 0 
L 1638 0 
L 1638 4134 
L -19 4134 
L -19 4666 
z
" transform="scale(0.015625)"/>
     <path id="DejaVuSans-2c" d="M 628 4666 
L 1259 4666 
L 1259 0 
L 628 0 
L 628 4666 
z
" transform="scale(0.015625)"/>
     <path id="DejaVuSans-79" d="M 684 2619 
L 1344 2619 
L 1344 1825 
L 684 1825 
L 684 2619 
z
" transform="scale(0.015625)"/>
     <path id="DejaVuSans-52" d="M 1959 3097 
Q 1497 3097 1228 2736 
Q 959 2375 959 1747 
Q 959 1119 1226 758 
Q 1494 397 1959 397 
Q 2419 397 2687 759 
Q 2956 1122 2956 1747 
Q 2956 2369 2687 2733 
Q 2419 3097 1959 3097 
z
M 1959 3584 
Q 2709 3584 3137 3096 
Q 3566 2609 3566 1747 
Q 3566 888 3137 398 
Q 2709 -91 1959 -91 
Q 1206 -91 779 398 
Q 353 888 353 1747 
Q 353 2609 779 3096 
Q 1206 3584 1959 3584 
z
" transform="scale(0.015625)"/>
     <path id="DejaVuSans-51" d="M 3513 2113 
L 3513 0 
L 2938 0 
L 2938 2094 
Q 2938 2591 2744 2837 
Q 2550 3084 2163 3084 
Q 1697 3084 1428 2787 
Q 1159 2491 1159 1978 
L 1159 0 
L 581 0 
L 581 3500 
L 1159 3500 
L 1159 2956 
Q 1366 3272 1645 3428 
Q 1925 3584 2291 3584 
Q 2894 3584 3203 3211 
Q 3513 2838 3513 2113 
z
" transform="scale(0.015625)"/>
     <path id="DejaVuSans-2a" d="M 3809 666 
L 3809 1919 
L 2778 1919 
L 2778 2438 
L 4434 2438 
L 4434 434 
Q 4069 175 3628 42 
Q 3188 -91 2688 -91 
Q 1594 -91 976 548 
Q 359 1188 359 2328 
Q 359 3472 976 4111 
Q 1594 4750 2688 4750 
Q 3144 4750 3555 4637 
Q 3966 4525 4313 4306 
L 4313 3634 
Q 3963 3931 3569 4081 
Q 3175 4231 2741 4231 
Q 1884 4231 1454 3753 
Q 1025 3275 1025 2328 
Q 1025 1384 1454 906 
Q 1884 428 2741 428 
Q 3075 428 3337 486 
Q 3600 544 3809 666 
z
" transform="scale(0.015625)"/>
     <path id="DejaVuSans-31" d="M 628 4666 
L 1478 4666 
L 3547 763 
L 3547 4666 
L 4159 4666 
L 4159 0 
L 3309 0 
L 1241 3903 
L 1241 0 
L 628 0 
L 628 4666 
z
" transform="scale(0.015625)"/>
     <path id="DejaVuSans-4b" d="M 3513 2113 
L 3513 0 
L 2938 0 
L 2938 2094 
Q 2938 2591 2744 2837 
Q 2550 3084 2163 3084 
Q 1697 3084 1428 2787 
Q 1159 2491 1159 1978 
L 1159 0 
L 581 0 
L 581 4863 
L 1159 4863 
L 1159 2956 
Q 1366 3272 1645 3428 
Q 1925 3584 2291 3584 
Q 2894 3584 3203 3211 
Q 3513 2838 3513 2113 
z
" transform="scale(0.015625)"/>
     <path id="DejaVuSans-12" d="M 1625 4666 
L 2156 4666 
L 531 -594 
L 0 -594 
L 1625 4666 
z
" transform="scale(0.015625)"/>
     <path id="DejaVuSans-4e" d="M 581 4863 
L 1159 4863 
L 1159 1991 
L 2875 3500 
L 3609 3500 
L 1753 1863 
L 3688 0 
L 2938 0 
L 1159 1709 
L 1159 0 
L 581 0 
L 581 4863 
z
" transform="scale(0.015625)"/>
    </defs>
    <use xlink:href="#DejaVuSans-36"/>
    <use xlink:href="#DejaVuSans-26" transform="translate(63.484375 0)"/>
    <use xlink:href="#DejaVuSans-2b" transform="translate(133.3125 0)"/>
    <use xlink:href="#DejaVuSans-28" transform="translate(208.515625 0)"/>
    <use xlink:href="#DejaVuSans-30" transform="translate(271.703125 0)"/>
    <use xlink:href="#DejaVuSans-24" transform="translate(357.984375 0)"/>
    <use xlink:href="#DejaVuSans-37" transform="translate(418.625 0)"/>
    <use xlink:href="#DejaVuSans-2c" transform="translate(479.703125 0)"/>
    <use xlink:href="#DejaVuSans-26" transform="translate(509.203125 0)"/>
    <use xlink:href="#DejaVuSans-3" transform="translate(579.03125 0)"/>
    <use xlink:href="#DejaVuSans-79" transform="translate(610.8125 0)"/>
    <use xlink:href="#DejaVuSans-3" transform="translate(642.59375 0)"/>
    <use xlink:href="#DejaVuSans-52" transform="translate(674.375 0)"/>
    <use xlink:href="#DejaVuSans-51" transform="translate(735.5625 0)"/>
    <use xlink:href="#DejaVuSans-48" transform="translate(798.9375 0)"/>
    <use xlink:href="#DejaVuSans-3" transform="translate(860.46875 0)"/>
    <use xlink:href="#DejaVuSans-2a" transform="translate(892.25 0)"/>
    <use xlink:href="#DejaVuSans-27" transform="translate(969.734375 0)"/>
    <use xlink:href="#DejaVuSans-31" transform="translate(1046.734375 0)"/>
    <use xlink:href="#DejaVuSans-3" transform="translate(1121.546875 0)"/>
    <use xlink:href="#DejaVuSans-4b" transform="translate(1153.328125 0)"/>
    <use xlink:href="#DejaVuSans-48" transform="translate(1216.703125 0)"/>
    <use xlink:href="#DejaVuSans-44" transform="translate(1278.234375 0)"/>
    <use xlink:href="#DejaVuSans-47" transform="translate(1339.515625 0)"/>
    <use xlink:href="#DejaVuSans-3" transform="translate(1403 0)"/>
    <use xlink:href="#DejaVuSans-12" transform="translate(1434.78125 0)"/>
    <use xlink:href="#DejaVuSans-3" transform="translate(1468.46875 0)"/>
    <use xlink:href="#DejaVuSans-52" transform="translate(1500.25 0)"/>
    <use xlink:href="#DejaVuSans-51" transform="translate(1561.4375 0)"/>
    <use xlink:href="#DejaVuSans-48" transform="translate(1624.8125 0)"/>
    <use xlink:href="#DejaVuSans-3" transform="translate(1686.34375 0)"/>
    <use xlink:href="#DejaVuSans-57" transform="translate(1718.125 0)"/>
    <use xlink:href="#DejaVuSans-52" transform="translate(1757.328125 0)"/>
    <use xlink:href="#DejaVuSans-4e" transform="translate(1818.515625 0)"/>
    <use xlink:href="#DejaVuSans-48" transform="translate(1872.859375 0)"/>
    <use xlink:href="#DejaVuSans-51" transform="translate(1934.390625 0)"/>
   </g>
  </g>
 </g>
 <defs>
  <clipPath id="pb0f1516566">
   <rect x="14.58" y="53.676" width="294.84" height="429.408"/>
  </clipPath>
 </defs>
</svg>
